# xmcd CD database file
#
# Track frame offsets:
#	150
#	40829
#	50681
#	74637
#	116510
#	176562
#	200771
#	239729
#
# Disc length: 3605 seconds
#
# Revision: 0
# Processed by: cddbd v1.5.1PL2 Copyright (c) Steve Scherf et al.
# Submitted via: CDex 1.51
#
DISCID=7c0e1308
DTITLE=Dee Dee Bridgewater and Band - 2005 Jazzfestival Leverkusen ''J'ai Deux Amours''
DYEAR=2005
DGENRE=Jazz
TTITLE0=Dee Dee Bridgewater - Mon Homme (My Man)
TTITLE1=Dee Dee Bridgewater - My Man (Billie Holiday)
TTITLE2=Dee Dee Bridgewater - Et Maintenant
TTITLE3=Dee Dee Bridgewater - Que Reste-t-il De Nos Amours
TTITLE4=Dee Dee Bridgewater - Dansez Sur Moi (Girl Talk)
TTITLE5=Dee Dee Bridgewater - Solo Minino Garay
TTITLE6=Dee Dee Bridgewater - La Vie En Rose
TTITLE7=Dee Dee Bridgewater - Les Feuilles Mortes
EXTD=YEAR: 2005
EXTT0=
EXTT1=
EXTT2=
EXTT3=
EXTT4=
EXTT5=
EXTT6=
EXTT7=
PLAYORDER=
